<svg width="58" height="58" viewBox="0 0 58 58" fill="none" xmlns="http://www.w3.org/2000/svg">
<circle cx="29" cy="29" r="28.5" fill="#CED1D9" stroke="#CED1D9"/>
<path d="M29 29.0002C30.6004 29.0002 32.1353 28.3645 33.267 27.2328C34.3987 26.1011 35.0345 24.5662 35.0345 22.9658C35.0345 21.3653 34.3987 19.8304 33.267 18.6987C32.1353 17.567 30.6004 16.9313 29 16.9313C27.3995 16.9313 25.8646 17.567 24.733 18.6987C23.6013 19.8304 22.9655 21.3653 22.9655 22.9658C22.9655 24.5662 23.6013 26.1011 24.733 27.2328C25.8646 28.3645 27.3995 29.0002 29 29.0002ZM29 32.0175C22.9534 32.0175 18.0293 36.0727 18.0293 41.0692C18.0293 41.4071 18.2948 41.6727 18.6327 41.6727H39.3672C39.7052 41.6727 39.9707 41.4071 39.9707 41.0692C39.9707 36.0727 35.0465 32.0175 29 32.0175Z" fill="#E6E8EC"/>
</svg>
