<svg width="17" height="16" viewBox="0 0 17 16" fill="none" xmlns="http://www.w3.org/2000/svg">
<path d="M15.6875 0.1875C15.6133 0.1875 15.5371 0.201172 15.4609 0.232422L4.20312 4.75586H1C0.828125 4.75586 0.6875 4.90039 0.6875 5.08008V10.9199C0.6875 11.0996 0.828125 11.2441 1 11.2441H2.98438C2.91211 11.4707 2.875 11.7109 2.875 11.9551C2.875 13.2422 3.92578 14.2891 5.21875 14.2891C6.30078 14.2891 7.21289 13.5547 7.48242 12.5625L15.4629 15.7695C15.5391 15.7988 15.6152 15.8145 15.6895 15.8145C16.0195 15.8145 16.3145 15.5371 16.3145 15.166V0.835937C16.3125 0.464844 16.0195 0.1875 15.6875 0.1875ZM5.21875 12.8887C4.70117 12.8887 4.28125 12.4707 4.28125 11.9551C4.28125 11.7363 4.35742 11.5273 4.49609 11.3613L6.1543 12.0273C6.11523 12.5078 5.71094 12.8887 5.21875 12.8887Z" fill="#394DC0"/>
</svg>
