<svg width="14" height="14" viewBox="0 0 14 14" fill="none" xmlns="http://www.w3.org/2000/svg">
<path d="M10.3333 10.3333H11.6667C12.0203 10.3333 12.3594 10.1929 12.6095 9.94281C12.8595 9.69276 13 9.35362 13 9V6.33333C13 5.97971 12.8595 5.64057 12.6095 5.39052C12.3594 5.14048 12.0203 5 11.6667 5H2.33333C1.97971 5 1.64057 5.14048 1.39052 5.39052C1.14048 5.64057 1 5.97971 1 6.33333V9C1 9.35362 1.14048 9.69276 1.39052 9.94281C1.64057 10.1929 1.97971 10.3333 2.33333 10.3333H3.66667M10.3333 5V2.33333C10.3333 1.97971 10.1929 1.64057 9.94281 1.39052C9.69276 1.14048 9.35362 1 9 1H5C4.64638 1 4.30724 1.14048 4.05719 1.39052C3.80714 1.64057 3.66667 1.97971 3.66667 2.33333V5M3.66667 9C3.66667 8.64638 3.80714 8.30724 4.05719 8.05719C4.30724 7.80714 4.64638 7.66667 5 7.66667H9C9.35362 7.66667 9.69276 7.80714 9.94281 8.05719C10.1929 8.30724 10.3333 8.64638 10.3333 9V11.6667C10.3333 12.0203 10.1929 12.3594 9.94281 12.6095C9.69276 12.8595 9.35362 13 9 13H5C4.64638 13 4.30724 12.8595 4.05719 12.6095C3.80714 12.3594 3.66667 12.0203 3.66667 11.6667V9Z" stroke="#CCCCCC" stroke-width="1.5" stroke-linecap="round" stroke-linejoin="round"/>
</svg>
