<svg width="18" height="18" viewBox="0 0 18 18" fill="none" xmlns="http://www.w3.org/2000/svg">
<path d="M8.99999 0.666748C4.39999 0.666748 0.666656 4.40008 0.666656 9.00008C0.666656 13.6001 4.39999 17.3334 8.99999 17.3334C13.6 17.3334 17.3333 13.6001 17.3333 9.00008C17.3333 4.40008 13.6 0.666748 8.99999 0.666748ZM13.375 9.67508C13.375 9.81675 13.3667 9.95008 13.35 10.0834C13.225 11.5584 12.35 12.2917 10.75 12.2917H10.5333C10.4656 12.2927 10.3989 12.3089 10.3383 12.3392C10.2777 12.3695 10.2247 12.4131 10.1833 12.4667L9.52499 13.3417C9.23332 13.7334 8.76666 13.7334 8.47499 13.3417L7.81666 12.4667C7.72685 12.3656 7.60149 12.3029 7.46666 12.2917H7.24999C5.50832 12.2917 4.62499 11.8584 4.62499 9.66675V7.47508C4.62499 5.87508 5.36666 5.00008 6.83332 4.87508C6.96666 4.86675 7.10832 4.86675 7.24999 4.86675H10.75C12.4917 4.86675 13.375 5.74175 13.375 7.49175V9.67508Z" fill="#BBBBBB"/>
</svg>
