<svg width="20" height="20" viewBox="0 0 20 20" fill="none" xmlns="http://www.w3.org/2000/svg">
<path d="M17.0833 8.49175H14.675C12.7 8.49175 11.0916 6.88341 11.0916 4.90841V2.50008C11.0916 2.04175 10.7166 1.66675 10.2583 1.66675H6.72498C4.15831 1.66675 2.08331 3.33341 2.08331 6.30841V13.6917C2.08331 16.6667 4.15831 18.3334 6.72498 18.3334H13.275C15.8416 18.3334 17.9166 16.6667 17.9166 13.6917V9.32508C17.9166 8.86675 17.5416 8.49175 17.0833 8.49175ZM10.2333 13.1501L8.56665 14.8167C8.50831 14.8751 8.43331 14.9251 8.35831 14.9501C8.28512 14.9837 8.20552 15.0011 8.12498 15.0011C8.04444 15.0011 7.96484 14.9837 7.89165 14.9501C7.8227 14.9213 7.76033 14.8787 7.70831 14.8251C7.69998 14.8167 7.69165 14.8167 7.69165 14.8084L6.02498 13.1417C5.90875 13.0241 5.84356 12.8654 5.84356 12.7001C5.84356 12.5347 5.90875 12.376 6.02498 12.2584C6.26665 12.0167 6.66665 12.0167 6.90831 12.2584L7.49998 12.8667V9.37508C7.49998 9.03341 7.78331 8.75008 8.12498 8.75008C8.46665 8.75008 8.74998 9.03341 8.74998 9.37508V12.8667L9.34998 12.2667C9.59165 12.0251 9.99165 12.0251 10.2333 12.2667C10.475 12.5084 10.475 12.9084 10.2333 13.1501Z" fill="#CCCCCC"/>
<path d="M14.5251 7.34207C15.3168 7.3504 16.4168 7.3504 17.3585 7.3504C17.8335 7.3504 18.0835 6.79207 17.7501 6.45873C16.5501 5.2504 14.4001 3.0754 13.1668 1.84207C12.8251 1.5004 12.2335 1.73373 12.2335 2.20873V5.11707C12.2335 6.33373 13.2668 7.34207 14.5251 7.34207Z" fill="#394DC0"/>
</svg>
