<svg width="16" height="18" viewBox="0 0 16 18" fill="none" xmlns="http://www.w3.org/2000/svg">
<path fill-rule="evenodd" clip-rule="evenodd" d="M0.425049 17.3334C0.425049 13.8834 3.82505 11.0834 8.00005 11.0834C12.175 11.0834 15.575 13.8834 15.575 17.3334C15.575 17.5667 15.3917 17.75 15.1584 17.75H0.841716C0.608382 17.75 0.425049 17.5667 0.425049 17.3334Z" fill="#BBBBBB"/>
<path d="M8.00005 9.00002C9.10512 9.00002 10.1649 8.56103 10.9463 7.77963C11.7277 6.99823 12.1667 5.93842 12.1667 4.83335C12.1667 3.72829 11.7277 2.66848 10.9463 1.88708C10.1649 1.10567 9.10512 0.666687 8.00005 0.666687C6.89498 0.666687 5.83517 1.10567 5.05377 1.88708C4.27237 2.66848 3.83338 3.72829 3.83338 4.83335C3.83338 5.93842 4.27237 6.99823 5.05377 7.77963C5.83517 8.56103 6.89498 9.00002 8.00005 9.00002Z" fill="#394DC0"/>
</svg>
