<svg width="16" height="16" viewBox="0 0 16 16" fill="none" xmlns="http://www.w3.org/2000/svg">
<path d="M14.6668 14.6654L13.3335 13.332M7.66683 13.9987C8.49853 13.9987 9.3221 13.8349 10.0905 13.5166C10.8589 13.1983 11.5571 12.7318 12.1452 12.1437C12.7333 11.5556 13.1998 10.8574 13.5181 10.089C13.8363 9.32063 14.0002 8.49707 14.0002 7.66536C14.0002 6.83366 13.8363 6.0101 13.5181 5.2417C13.1998 4.47331 12.7333 3.77513 12.1452 3.18702C11.5571 2.59892 10.8589 2.13241 10.0905 1.81413C9.3221 1.49585 8.49853 1.33203 7.66683 1.33203C5.98712 1.33203 4.37622 1.99929 3.18849 3.18702C2.00076 4.37475 1.3335 5.98566 1.3335 7.66536C1.3335 9.34507 2.00076 10.956 3.18849 12.1437C4.37622 13.3314 5.98712 13.9987 7.66683 13.9987Z" stroke="white" stroke-width="1.5" stroke-linecap="round" stroke-linejoin="round"/>
</svg>
