<svg width="24" height="24" viewBox="0 0 24 24" fill="none" xmlns="http://www.w3.org/2000/svg">
<g clip-path="url(#clip0_418_25056)">
<path d="M12 2C6.48 2 2 6.48 2 12C2 17.52 6.48 22 12 22C17.52 22 22 17.52 22 12C22 6.48 17.52 2 12 2ZM17.25 12.81C17.25 12.98 17.24 13.14 17.22 13.3C17.07 15.07 16.02 15.95 14.1 15.95H13.84C13.7587 15.9511 13.6787 15.9706 13.606 16.007C13.5333 16.0433 13.4697 16.0956 13.42 16.16L12.63 17.21C12.28 17.68 11.72 17.68 11.37 17.21L10.58 16.16C10.4722 16.0386 10.3218 15.9634 10.16 15.95H9.9C7.81 15.95 6.75 15.43 6.75 12.8V10.17C6.75 8.25 7.64 7.2 9.4 7.05C9.56 7.04 9.73 7.04 9.9 7.04H14.1C16.19 7.04 17.25 8.09 17.25 10.19V12.81Z" fill="#AAAAAA"/>
<path d="M20.5 6.75C21.362 6.75 22.1886 6.40759 22.7981 5.7981C23.4076 5.1886 23.75 4.36195 23.75 3.5C23.75 2.63805 23.4076 1.8114 22.7981 1.2019C22.1886 0.59241 21.362 0.25 20.5 0.25C19.638 0.25 18.8114 0.59241 18.2019 1.2019C17.5924 1.8114 17.25 2.63805 17.25 3.5C17.25 4.36195 17.5924 5.1886 18.2019 5.7981C18.8114 6.40759 19.638 6.75 20.5 6.75Z" fill="#394DC0" stroke="white" stroke-width="1.5"/>
</g>
<defs>
<clipPath id="clip0_418_25056">
<rect width="24" height="24" fill="white"/>
</clipPath>
</defs>
</svg>
