<svg width="16" height="16" viewBox="0 0 16 16" fill="none" xmlns="http://www.w3.org/2000/svg">
<path d="M2.66669 10L4.66669 12M4.66669 12L6.66669 10M4.66669 12V4M11.3334 2C11.687 2 12.0261 2.14048 12.2762 2.39052C12.5262 2.64057 12.6667 2.97971 12.6667 3.33333V5.33333C12.6667 5.68696 12.5262 6.02609 12.2762 6.27614C12.0261 6.52619 11.687 6.66667 11.3334 6.66667C10.9797 6.66667 10.6406 6.52619 10.3905 6.27614C10.1405 6.02609 10 5.68696 10 5.33333V3.33333C10 2.97971 10.1405 2.64057 10.3905 2.39052C10.6406 2.14048 10.9797 2 11.3334 2Z" stroke="#1D203A" stroke-linecap="round" stroke-linejoin="round"/>
<path d="M11.3333 11.9999C12.0697 11.9999 12.6667 11.403 12.6667 10.6666C12.6667 9.93021 12.0697 9.33325 11.3333 9.33325C10.597 9.33325 10 9.93021 10 10.6666C10 11.403 10.597 11.9999 11.3333 11.9999Z" stroke="#1D203A" stroke-linecap="round" stroke-linejoin="round"/>
<path d="M12.6667 10.6667V12.6667C12.6667 13.0204 12.5262 13.3595 12.2762 13.6096C12.0261 13.8596 11.687 14.0001 11.3334 14.0001H10.3334" stroke="#1D203A" stroke-linecap="round" stroke-linejoin="round"/>
</svg>
