<svg width="24" height="24" viewBox="0 0 24 24" fill="none" xmlns="http://www.w3.org/2000/svg">
<path d="M22 9.25V11.35C22 12.62 21.58 13.69 20.83 14.43C20.09 15.18 19.02 15.6 17.75 15.6H15.59M15.46 17.48C15.55 17.17 15.59 16.83 15.59 16.47V15.6M16.75 2H9.25C6.7 2 5 3.7 5 6.25V9.02C5.13 9.01 5.26 9 5.4 9H12.19C14.23 9 15.59 10.36 15.59 12.4V15.6" stroke="white" stroke-width="1.5" stroke-miterlimit="10" stroke-linecap="round" stroke-linejoin="round"/>
<path d="M15.59 12.4V16.47C15.59 16.83 15.55 17.17 15.46 17.48C15.09 18.95 13.87 19.87 12.19 19.87H9.47L6.45 21.88C6.34876 21.9493 6.23046 21.9895 6.10796 21.9963C5.98547 22.003 5.86346 21.9761 5.75521 21.9184C5.64695 21.8606 5.5566 21.7743 5.49398 21.6688C5.43135 21.5633 5.39885 21.4427 5.4 21.32V19.87C4.38 19.87 3.53 19.53 2.94 18.94C2.34 18.34 2 17.49 2 16.47V12.4C2 10.5 3.18 9.19 5 9.02C5.13 9.01 5.26 9 5.4 9H12.19C14.23 9 15.59 10.36 15.59 12.4V12.4Z" stroke="white" stroke-width="1.5" stroke-miterlimit="10" stroke-linecap="round" stroke-linejoin="round"/>
<path d="M20.5 7C21.163 7 21.7989 6.73661 22.2678 6.26777C22.7366 5.79893 23 5.16304 23 4.5C23 3.83696 22.7366 3.20107 22.2678 2.73223C21.7989 2.26339 21.163 2 20.5 2C19.837 2 19.2011 2.26339 18.7322 2.73223C18.2634 3.20107 18 3.83696 18 4.5C18 5.16304 18.2634 5.79893 18.7322 6.26777C19.2011 6.73661 19.837 7 20.5 7Z" fill="#FD494A"/>
</svg>
