<svg width="25" height="25" viewBox="0 0 25 25" fill="none" xmlns="http://www.w3.org/2000/svg">
<path d="M22.9173 22.9154L20.834 20.832M11.9798 21.8737C13.2794 21.8737 14.5662 21.6177 15.7668 21.1204C16.9674 20.6231 18.0583 19.8942 18.9772 18.9753C19.8961 18.0564 20.6251 16.9655 21.1224 15.7648C21.6197 14.5642 21.8757 13.2774 21.8757 11.9779C21.8757 10.6783 21.6197 9.39151 21.1224 8.19089C20.6251 6.99027 19.8961 5.89937 18.9772 4.98045C18.0583 4.06154 16.9674 3.33262 15.7668 2.83531C14.5662 2.33799 13.2794 2.08203 11.9798 2.08203C9.35528 2.08203 6.83824 3.12462 4.98241 4.98045C3.12658 6.83628 2.08398 9.35333 2.08398 11.9779C2.08398 14.6024 3.12658 17.1194 4.98241 18.9753C6.83824 20.8311 9.35528 21.8737 11.9798 21.8737Z" stroke="#CCCCCC" stroke-width="1.5" stroke-linecap="round" stroke-linejoin="round"/>
</svg>
