<svg width="20" height="20" viewBox="0 0 20 20" fill="none" xmlns="http://www.w3.org/2000/svg">
<path d="M13.4915 1.66797H6.50817C3.47484 1.66797 1.6665 3.4763 1.6665 6.50964V13.4846C1.6665 16.5263 3.47484 18.3346 6.50817 18.3346H13.4832C16.5165 18.3346 18.3248 16.5263 18.3248 13.493V6.50964C18.3332 3.4763 16.5248 1.66797 13.4915 1.66797ZM9.99984 15.0096C7.35817 15.0096 5.20817 12.8596 5.20817 10.218C5.20817 7.5763 7.35817 5.4263 9.99984 5.4263C10.1165 5.4263 10.2415 5.44297 10.3582 5.4513L10.1248 5.18464C10.0164 5.05931 9.96179 4.89633 9.97271 4.731C9.98363 4.56566 10.0592 4.41128 10.1832 4.3013C10.4415 4.0763 10.8415 4.1013 11.0665 4.35964L12.4582 5.9513C12.4665 5.95964 12.4665 5.96797 12.4748 5.9763C12.4832 5.98464 12.4915 5.98464 12.4915 5.99297C12.5082 6.01797 12.5165 6.0513 12.5332 6.08464C12.5498 6.1263 12.5748 6.15964 12.5832 6.2013C12.5915 6.24297 12.5915 6.2763 12.5998 6.31797C12.5998 6.35964 12.6082 6.39297 12.6082 6.43464C12.6082 6.4763 12.5915 6.50964 12.5748 6.5513C12.5582 6.59297 12.5498 6.63464 12.5332 6.66797C12.5165 6.7013 12.4832 6.73464 12.4582 6.76797C12.4332 6.79297 12.4248 6.8263 12.3998 6.84297C12.3915 6.8513 12.3832 6.8513 12.3748 6.85963C12.3665 6.86797 12.3665 6.8763 12.3582 6.8763L10.7415 8.05964C10.6354 8.13772 10.5066 8.17872 10.3748 8.1763C10.1832 8.1763 9.9915 8.08464 9.8665 7.91797C9.6665 7.64297 9.72484 7.2513 9.99984 7.04297L10.4665 6.7013C10.3082 6.69297 10.1582 6.6763 9.99984 6.6763C9.0612 6.6785 8.16165 7.05235 7.49793 7.71606C6.83422 8.37978 6.46037 9.27934 6.45817 10.218C6.46037 11.1566 6.83422 12.0562 7.49793 12.7199C8.16165 13.3836 9.0612 13.7574 9.99984 13.7596C10.9385 13.7574 11.838 13.3836 12.5017 12.7199C13.1655 12.0562 13.5393 11.1566 13.5415 10.218C13.5415 9.50964 13.3332 8.83463 12.9498 8.2513C12.904 8.18305 12.8721 8.10638 12.856 8.02573C12.84 7.94508 12.8401 7.86204 12.8564 7.78143C12.8727 7.70083 12.9048 7.62425 12.9509 7.55614C12.9969 7.48803 13.0561 7.42973 13.1248 7.38463C13.4082 7.19297 13.7998 7.26797 13.9915 7.55964C14.5165 8.3513 14.7998 9.26797 14.7998 10.218C14.7963 11.4892 14.2892 12.7071 13.3896 13.6052C12.4899 14.5033 11.271 15.0083 9.99984 15.0096Z" fill="#AAAAAA"/>
</svg>
