<svg width="24" height="24" viewBox="0 0 24 24" fill="none" xmlns="http://www.w3.org/2000/svg">
<path d="M14.35 2H9.65001C8.61001 2 7.76001 2.84 7.76001 3.88V4.82C7.76001 5.86 8.60001 6.7 9.64001 6.7H14.35C15.39 6.7 16.23 5.86 16.23 4.82V3.88C16.24 2.84 15.39 2 14.35 2Z" fill="#AAAAAA"/>
<path d="M17.24 4.81998C17.24 6.40998 15.94 7.70998 14.35 7.70998H9.64998C8.05998 7.70998 6.75998 6.40998 6.75998 4.81998C6.75998 4.25998 6.15998 3.90998 5.65998 4.16998C4.94373 4.5514 4.34477 5.12052 3.92727 5.81635C3.50977 6.51219 3.28947 7.30851 3.28998 8.11998V17.53C3.28998 19.99 5.29998 22 7.75998 22H16.24C18.7 22 20.71 19.99 20.71 17.53V8.11998C20.71 6.40998 19.75 4.91998 18.34 4.16998C17.84 3.90998 17.24 4.25998 17.24 4.81998ZM12.38 16.95H7.99998C7.58998 16.95 7.24998 16.61 7.24998 16.2C7.24998 15.79 7.58998 15.45 7.99998 15.45H12.38C12.79 15.45 13.13 15.79 13.13 16.2C13.13 16.61 12.79 16.95 12.38 16.95ZM15 12.95H7.99998C7.58998 12.95 7.24998 12.61 7.24998 12.2C7.24998 11.79 7.58998 11.45 7.99998 11.45H15C15.41 11.45 15.75 11.79 15.75 12.2C15.75 12.61 15.41 12.95 15 12.95Z" fill="#AAAAAA"/>
<path d="M19 15C16.79 15 15 16.79 15 19C15 19.75 15.21 20.46 15.58 21.06C15.9325 21.6525 16.4333 22.143 17.033 22.4831C17.6326 22.8233 18.3106 23.0014 19 23C20.46 23 21.73 22.22 22.42 21.06C22.79 20.46 23 19.75 23 19C23 16.79 21.21 15 19 15ZM21.07 18.57L18.94 20.54C18.8 20.67 18.61 20.74 18.43 20.74C18.24 20.74 18.05 20.67 17.9 20.52L16.91 19.53C16.7705 19.3889 16.6923 19.1984 16.6923 19C16.6923 18.8016 16.7705 18.6111 16.91 18.47C17.2 18.18 17.68 18.18 17.97 18.47L18.45 18.95L20.05 17.47C20.35 17.19 20.83 17.21 21.11 17.51C21.39 17.81 21.37 18.28 21.07 18.57Z" fill="#394DC0"/>
<path d="M18.9401 20.5401L21.0701 18.5701C21.3701 18.2801 21.3901 17.8101 21.1101 17.5101C20.8301 17.2101 20.3501 17.1901 20.0501 17.4701L18.4501 18.9501L17.9701 18.4701C17.6801 18.1801 17.2001 18.1801 16.9101 18.4701C16.7706 18.6112 16.6924 18.8016 16.6924 19.0001C16.6924 19.1985 16.7706 19.3889 16.9101 19.5301L17.9001 20.5201C18.0501 20.6701 18.2401 20.7401 18.4301 20.7401C18.6101 20.7401 18.8001 20.6701 18.9401 20.5401Z" fill="#FBFBFB"/>
</svg>
