<svg width="14" height="15" viewBox="0 0 14 15" fill="none" xmlns="http://www.w3.org/2000/svg">
<path d="M5.14652 11.0358L9.63858 6.49437C9.91351 6.21642 10.068 5.83943 10.068 5.44635C10.068 5.05327 9.91351 4.67629 9.63858 4.39834C9.36365 4.12039 8.99076 3.96423 8.60195 3.96423C8.21314 3.96423 7.84025 4.12039 7.56532 4.39834L3.07326 8.93974C2.5234 9.49564 2.21449 10.2496 2.21449 11.0358C2.21449 11.8219 2.5234 12.5759 3.07326 13.1318C3.62312 13.6877 4.3689 14 5.14652 14C5.92414 14 6.66992 13.6877 7.21978 13.1318L11.7118 8.5904C12.5366 7.75654 13 6.6256 13 5.44635C13 4.26711 12.5366 3.13616 11.7118 2.30231C10.887 1.46845 9.76839 1 8.60195 1C7.43552 1 6.31686 1.46845 5.49206 2.30231L1 6.84371" stroke="#CCCCCC" stroke-width="1.5" stroke-linecap="round" stroke-linejoin="round"/>
</svg>
