<svg width="16" height="18" viewBox="0 0 16 18" fill="none" xmlns="http://www.w3.org/2000/svg">
<path fill-rule="evenodd" clip-rule="evenodd" d="M0.424988 17.3334C0.424988 13.8834 3.82499 11.0834 7.99999 11.0834C12.175 11.0834 15.575 13.8834 15.575 17.3334C15.575 17.5667 15.3917 17.7501 15.1583 17.7501H0.841654C0.608321 17.7501 0.424988 17.5667 0.424988 17.3334Z" fill="#BBBBBB"/>
<path d="M7.99999 9.00008C9.10506 9.00008 10.1649 8.56109 10.9463 7.77969C11.7277 6.99829 12.1667 5.93848 12.1667 4.83342C12.1667 3.72835 11.7277 2.66854 10.9463 1.88714C10.1649 1.10573 9.10506 0.666748 7.99999 0.666748C6.89492 0.666748 5.83511 1.10573 5.05371 1.88714C4.27231 2.66854 3.83332 3.72835 3.83332 4.83342C3.83332 5.93848 4.27231 6.99829 5.05371 7.77969C5.83511 8.56109 6.89492 9.00008 7.99999 9.00008Z" fill="#394DC0"/>
</svg>
