<svg width="14" height="14" viewBox="0 0 14 14" fill="none" xmlns="http://www.w3.org/2000/svg">
<path d="M7.17658 8.224L6.9998 8.04723L6.82303 8.224L1.92303 13.124C1.79116 13.2559 1.62361 13.3258 1.3998 13.3258C1.176 13.3258 1.00845 13.2559 0.876581 13.124C0.744713 12.9921 0.674805 12.8246 0.674805 12.6008C0.674805 12.377 0.744713 12.2094 0.876581 12.0776L5.77658 7.17756L5.95336 7.00078L5.77658 6.824L0.876581 1.924C0.744713 1.79214 0.674805 1.62458 0.674805 1.40078C0.674805 1.17698 0.744713 1.00943 0.876581 0.877558C1.00845 0.74569 1.176 0.675781 1.3998 0.675781C1.62361 0.675781 1.79116 0.74569 1.92303 0.877558L6.82303 5.77756L6.9998 5.95433L7.17658 5.77756L12.0766 0.877558C12.2084 0.74569 12.376 0.675781 12.5998 0.675781C12.8236 0.675781 12.9912 0.74569 13.123 0.877558C13.2549 1.00943 13.3248 1.17698 13.3248 1.40078C13.3248 1.62458 13.2549 1.79214 13.123 1.924L8.22303 6.824L8.04625 7.00078L8.22303 7.17756L13.123 12.0776C13.2549 12.2094 13.3248 12.377 13.3248 12.6008C13.3248 12.8246 13.2549 12.9921 13.123 13.124C12.9912 13.2559 12.8236 13.3258 12.5998 13.3258C12.376 13.3258 12.2084 13.2559 12.0766 13.124L7.17658 8.224Z" fill="#BBBBBB" stroke="white" stroke-width="0.5"/>
</svg>
