<svg width="18" height="16" viewBox="0 0 18 16" fill="none" xmlns="http://www.w3.org/2000/svg">
<path d="M13.1667 0.916748H4.83335C2.33335 0.916748 0.666687 2.16675 0.666687 5.08342V10.9167C0.666687 13.8334 2.33335 15.0834 4.83335 15.0834H13.1667C15.6667 15.0834 17.3334 13.8334 17.3334 10.9167V5.08342C17.3334 2.16675 15.6667 0.916748 13.1667 0.916748ZM13.5584 5.99175L10.95 8.07508C10.4 8.51675 9.70002 8.73342 9.00002 8.73342C8.30002 8.73342 7.59169 8.51675 7.05002 8.07508L4.44169 5.99175C4.31419 5.88591 4.23258 5.73486 4.21394 5.5702C4.1953 5.40555 4.24108 5.24008 4.34169 5.10841C4.55835 4.84175 4.95002 4.79175 5.21669 5.00841L7.82502 7.09175C8.45835 7.60008 9.53335 7.60008 10.1667 7.09175L12.775 5.00841C13.0417 4.79175 13.4417 4.83341 13.65 5.10841C13.8667 5.37508 13.825 5.77508 13.5584 5.99175Z" fill="#BBBBBB"/>
</svg>
