<svg width="24" height="24" viewBox="0 0 24 24" fill="none" xmlns="http://www.w3.org/2000/svg">
<g clip-path="url(#clip0_418_25074)">
<path d="M14.35 2H9.65001C8.61001 2 7.76001 2.84 7.76001 3.88V4.82C7.76001 5.86 8.60001 6.7 9.64001 6.7H14.35C15.39 6.7 16.23 5.86 16.23 4.82V3.88C16.24 2.84 15.39 2 14.35 2Z" fill="#AAAAAA"/>
<path d="M17.24 4.81998C17.24 6.40998 15.94 7.70998 14.35 7.70998H9.64998C8.05998 7.70998 6.75998 6.40998 6.75998 4.81998C6.75998 4.25998 6.15998 3.90998 5.65998 4.16998C4.94373 4.5514 4.34477 5.12052 3.92727 5.81635C3.50977 6.51219 3.28947 7.30851 3.28998 8.11998V17.53C3.28998 19.99 5.29998 22 7.75998 22H16.24C18.7 22 20.71 19.99 20.71 17.53V8.11998C20.71 6.40998 19.75 4.91998 18.34 4.16998C17.84 3.90998 17.24 4.25998 17.24 4.81998ZM12.38 16.95H7.99998C7.58998 16.95 7.24998 16.61 7.24998 16.2C7.24998 15.79 7.58998 15.45 7.99998 15.45H12.38C12.79 15.45 13.13 15.79 13.13 16.2C13.13 16.61 12.79 16.95 12.38 16.95ZM15 12.95H7.99998C7.58998 12.95 7.24998 12.61 7.24998 12.2C7.24998 11.79 7.58998 11.45 7.99998 11.45H15C15.41 11.45 15.75 11.79 15.75 12.2C15.75 12.61 15.41 12.95 15 12.95Z" fill="#AAAAAA"/>
<path d="M13.6929 19.9793L13.6537 20.0602L13.6348 20.1482L13.3159 21.6322C13.0326 22.5898 13.6708 23.4411 14.4494 23.7095L14.5682 23.7505H14.6938H14.6948H14.6957H14.6967H14.6976H14.6986H14.6996H14.7005H14.7015H14.7024H14.7034H14.7043H14.7053H14.7062H14.7072H14.7081H14.7091H14.7101H14.711H14.712H14.7129H14.7139H14.7148H14.7158H14.7167H14.7177H14.7186H14.7196H14.7206H14.7215H14.7225H14.7234H14.7244H14.7253H14.7263H14.7272H14.7282H14.7291H14.7301H14.731H14.732H14.733H14.7339H14.7349H14.7358H14.7368H14.7377H14.7387H14.7396H14.7406H14.7415H14.7425H14.7435H14.7444H14.7454H14.7463H14.7473H14.7482H14.7492H14.7501H14.7511H14.752H14.753H14.754H14.7549H14.7559H14.7568H14.7578H14.7587H14.7597H14.7606H14.7616H14.7625H14.7635H14.7644H14.7654H14.7664H14.7673H14.7683H14.7692H14.7702H14.7711H14.7721H14.773H14.774H14.7749H14.7759H14.7769H14.7778H14.7788H14.7797H14.7807H14.7816H14.7826H14.7835H14.7845H14.7854H14.7864H14.7874H14.7883H14.7893H14.7902H14.7912H14.7921H14.7931H14.794H14.795H14.7959H14.7969H14.7978H14.7988H14.7998H14.8007H14.8017H14.8026H14.8036H14.8045H14.8055H14.8064H14.8074H14.8083H14.8093H14.8103H14.8112H14.8122H14.8131H14.8141H14.815H14.816H14.8169H14.8179H14.8188H14.8198H14.8208H14.8217H14.8227H14.8236H14.8246H14.8255H14.8265H14.8274H14.8284H14.8293H14.8303H14.8312H14.8322H14.8332H14.8341H14.8351H14.836H14.837H14.8379H14.8389H14.8398H14.8408H14.8417H14.8427H14.8437H14.8446H14.8456H14.8465H14.8475H14.8484H14.8494H14.8503H14.8513H14.8522H14.8532H14.8542H14.8551H14.8561H14.857H14.858H14.8589H14.8599H14.8608H14.8618H14.8627H14.8637H14.8646H14.8656H14.8666H14.8675H14.8685H14.8694H14.8704H14.8713H14.8723H14.8732H14.8742H14.8751H14.8761H14.8771H14.878H14.879H14.8799H14.8809H14.8818H14.8828H14.8837H14.8847H14.8856H14.8866H14.8876H14.8885H14.8895H14.8904H14.8914H14.8923H14.8933H14.8942H14.8952H14.8961H14.8971H14.898H14.899H14.9H14.9009H14.9019H14.9028H14.9038H14.9047H14.9057H14.9066H14.9076H14.9085H14.9095H14.9105H14.9114H14.9124H14.9133H14.9143H14.9152H14.9162H14.9171H14.9181H14.919H14.92H14.921H14.9219H14.9229H14.9238H14.9248H14.9257H14.9267H14.9276H14.9286H14.9295H14.9305H14.9314H14.9324H14.9334H14.9343H14.9353H14.9362H14.9372H14.9381H14.9391H14.94H14.941H14.9419H14.9429H14.9439H14.9448H14.9458H14.9467H14.9477H14.9486H14.9496H14.9505H14.9515H14.9524H14.9534H14.9544H14.9553H14.9563H14.9572H14.9582H14.9591H14.9601H14.961H14.962H14.9629H14.9639H14.9648H14.9658H14.9668H14.9677H14.9687H14.9696H14.9706H14.9715H14.9725H14.9734H14.9744H14.9753H14.9763H14.9773H14.9782H14.9792H14.9801H14.9811H14.982H14.983H14.9839H14.9849H14.9858H14.9868H14.9878H14.9887H14.9897H14.9906H14.9916H14.9925H14.9935H14.9944H14.9954H14.9963H14.9973H14.9983H14.9992H15.0002H15.0011H15.0021H15.003H15.004H15.0049H15.0059H15.0068H15.0078H15.0087H15.0097H15.0107H15.0116H15.0126H15.0135H15.0145H15.0154H15.0164H15.0173H15.0183H15.0192H15.0202H15.0212H15.0221H15.0231H15.024H15.025H15.0259H15.0269H15.0278H15.0288H15.0297H15.0307H15.0317H15.0326H15.0336H15.0345H15.0355H15.0364H15.0374H15.0383H15.0393H15.0402H15.0412H15.0421H15.0431H15.0441H15.045H15.046H15.0469H15.0479H15.0488H15.0498H15.0507H15.0517H15.0526H15.0536H15.0546H15.0555H15.0565H15.0574H15.0584H15.0593H15.0603H15.0612H15.0622H15.0631H15.0641H15.0651H15.066H15.067H15.0679H15.0689H15.0698H15.0708H15.0717H15.0727H15.0736H15.0746H15.0755H15.0765H15.0775H15.0784H15.0794H15.0803H15.0813H15.0822H15.0832H15.0841H15.0851H15.086H15.087H15.088H15.0889H15.0899H15.0908H15.0918H15.0927H15.0937H15.0946H15.0956H15.0965H15.0975H15.0985H15.0994H15.1004H15.1013H15.1023H15.1032H15.1042H15.1051H15.1061H15.107H15.108H15.1089H15.1099H15.1109H15.1118H15.1128H15.1137H15.1147H15.1156H15.1166H15.1175H15.1185H15.1194H15.1204H15.1214H15.1223H15.1233H15.1242H15.1252H15.1261H15.1271H15.128H15.129H15.1299H15.1309H15.1319H15.1328H15.1338H15.1347H15.1357H15.1366H15.1376H15.1385H15.1395H15.1404H15.1414H15.1423H15.1433H15.1443H15.1452H15.1462H15.1471H15.1481H15.149H15.15H15.1509H15.1519H15.1528H15.1538H15.1548H15.1557H15.1567H15.1576H15.1586H15.1595H15.1605H15.1614H15.1624H15.1633H15.1643H15.1653H15.1662H15.1672H15.1681H15.1691H15.17H15.171H15.1719H15.1729H15.1738H15.1748H15.1757H15.1767H15.1777H15.1786H15.1796H15.1805H15.1815H15.1824H15.2675L15.3504 23.7314L16.8162 23.3946L16.9085 23.3734L16.9927 23.3298C17.0422 23.3042 17.0943 23.2797 17.1618 23.2478C17.185 23.2369 17.2099 23.2251 17.2373 23.2121C17.3347 23.1658 17.4533 23.1082 17.5715 23.0403C17.7634 22.93 18.0424 22.7451 18.231 22.4426L23.0505 17.4587L23.0793 17.4289L23.1046 17.3962C23.9382 16.3188 24.0101 14.7135 23.0505 13.7212L23.0216 13.6912L22.9895 13.6647C21.9333 12.7909 20.3411 12.7132 19.3664 13.7212L14.4804 18.7738C14.0706 19.1976 13.8637 19.6258 13.7025 19.9594C13.6993 19.966 13.6961 19.9727 13.6929 19.9793Z" fill="#394DC0" stroke="white" stroke-width="1.5"/>
</g>
<defs>
<clipPath id="clip0_418_25074">
<rect width="24" height="24" fill="white"/>
</clipPath>
</defs>
</svg>
