<svg width="8" height="6" viewBox="0 0 8 6" fill="none" xmlns="http://www.w3.org/2000/svg">
<path d="M4.26011 5.35863C4.09477 5.41382 3.90601 5.41382 3.74067 5.35863C3.61297 5.316 3.53002 5.24092 3.4723 5.17973C3.41554 5.11958 3.35478 5.04078 3.28796 4.95411L0.645615 1.52771C0.578524 1.44072 0.517555 1.36168 0.476215 1.29459C0.434201 1.22641 0.388622 1.13477 0.403148 1.03016C0.421946 0.894809 0.516406 0.77181 0.66302 0.691781C0.776324 0.629933 0.904809 0.613627 1.00445 0.606764C1.1025 0.600011 1.22416 0.600018 1.35805 0.600025H6.64272C6.77661 0.600018 6.89828 0.600011 6.99633 0.606764C7.09597 0.613627 7.22446 0.629933 7.33776 0.691781C7.48438 0.77181 7.57884 0.894809 7.59763 1.03016C7.61216 1.13477 7.56658 1.22641 7.52457 1.29459C7.48322 1.36168 7.42225 1.44073 7.35516 1.52772L4.71282 4.95411C4.646 5.04078 4.58524 5.11958 4.52848 5.17973C4.47076 5.24092 4.38781 5.316 4.26011 5.35863Z" fill="#1D203A"/>
</svg>
