<svg width="18" height="16" viewBox="0 0 18 16" fill="none" xmlns="http://www.w3.org/2000/svg">
<path d="M15.7498 5.68434C14.2415 5.68434 13.6248 4.61767 14.3748 3.30934C14.8082 2.55101 14.5498 1.58434 13.7915 1.15101L12.3498 0.326005C11.6915 -0.0656617 10.8415 0.167672 10.4498 0.826005L10.3582 0.984339C9.60817 2.29267 8.37484 2.29267 7.6165 0.984339L7.52484 0.826005C7.435 0.668489 7.31474 0.530412 7.17105 0.419809C7.02735 0.309206 6.8631 0.228285 6.68784 0.181756C6.51258 0.135227 6.32981 0.124018 6.15018 0.148783C5.97055 0.173547 5.79764 0.23379 5.6415 0.326005L4.19984 1.15101C3.4415 1.58434 3.18317 2.55934 3.6165 3.31767C4.37484 4.61767 3.75817 5.68434 2.24984 5.68434C1.38317 5.68434 0.666504 6.39267 0.666504 7.26767V8.73434C0.666504 9.60101 1.37484 10.3177 2.24984 10.3177C3.75817 10.3177 4.37484 11.3843 3.6165 12.6927C3.18317 13.451 3.4415 14.4177 4.19984 14.851L5.6415 15.676C6.29984 16.0677 7.14984 15.8343 7.5415 15.176L7.63317 15.0177C8.38317 13.7093 9.6165 13.7093 10.3748 15.0177L10.4665 15.176C10.8582 15.8343 11.7082 16.0677 12.3665 15.676L13.8082 14.851C14.5665 14.4177 14.8248 13.4427 14.3915 12.6927C13.6332 11.3843 14.2498 10.3177 15.7582 10.3177C16.6248 10.3177 17.3415 9.60934 17.3415 8.73434V7.26767C17.3371 6.84766 17.1678 6.44621 16.87 6.14998C16.5722 5.85375 16.1699 5.6865 15.7498 5.68434ZM8.99984 10.7093C7.50817 10.7093 6.2915 9.49267 6.2915 8.00101C6.2915 6.50934 7.50817 5.29267 8.99984 5.29267C10.4915 5.29267 11.7082 6.50934 11.7082 8.00101C11.7082 9.49267 10.4915 10.7093 8.99984 10.7093Z" fill="#CCCCCC"/>
</svg>
