<svg width="62" height="62" viewBox="0 0 62 62" fill="none" xmlns="http://www.w3.org/2000/svg">
<path d="M60.2221 45.0589L51.0929 23.7089C49.4304 19.8006 46.9513 17.5839 44.1221 17.4381C41.3221 17.2923 38.6096 19.2464 36.5388 22.9798L30.9971 32.9256C29.8304 35.0256 28.1679 36.2798 26.3596 36.4256C24.5221 36.6006 22.6846 35.6381 21.1971 33.7423L20.5554 32.9256C18.4846 30.3298 15.9179 29.0756 13.2929 29.3381C10.6679 29.6006 8.42211 31.4089 6.93461 34.3548L1.88877 44.4173C0.0804392 48.0631 0.255439 52.2923 2.38461 55.7339C4.51377 59.1756 8.21794 61.2464 12.2721 61.2464H49.4888C53.3971 61.2464 57.0429 59.2923 59.2013 56.0256C61.4179 52.7589 61.7679 48.6464 60.2221 45.0589ZM16.3292 20.4452C18.9438 20.4452 21.4513 19.4065 23.3001 17.5577C25.1489 15.7089 26.1875 13.2014 26.1875 10.5868C26.1875 7.97226 25.1489 5.46475 23.3001 3.61595C21.4513 1.76716 18.9438 0.728516 16.3292 0.728516C13.7146 0.728516 11.2071 1.76716 9.35829 3.61595C7.5095 5.46475 6.47086 7.97226 6.47086 10.5868C6.47086 13.2014 7.5095 15.7089 9.35829 17.5577C11.2071 19.4065 13.7146 20.4452 16.3292 20.4452Z" fill="#CED1D9"/>
</svg>
