<svg width="20" height="20" viewBox="0 0 20 20" fill="none" xmlns="http://www.w3.org/2000/svg">
<path d="M16.75 7.68422C15.2417 7.68422 14.625 6.61755 15.375 5.30922C15.8084 4.55088 15.55 3.58422 14.7917 3.15088L13.35 2.32588C12.6917 1.93422 11.8417 2.16755 11.45 2.82588L11.3584 2.98422C10.6084 4.29255 9.37502 4.29255 8.61669 2.98422L8.52502 2.82588C8.43519 2.66837 8.31493 2.53029 8.17123 2.41969C8.02754 2.30908 7.86328 2.22816 7.68802 2.18163C7.51276 2.1351 7.33 2.1239 7.15036 2.14866C6.97073 2.17342 6.79782 2.23367 6.64169 2.32588L5.20002 3.15088C4.44169 3.58422 4.18335 4.55922 4.61669 5.31755C5.37502 6.61755 4.75835 7.68422 3.25002 7.68422C2.38335 7.68422 1.66669 8.39255 1.66669 9.26755V10.7342C1.66669 11.6009 2.37502 12.3176 3.25002 12.3176C4.75835 12.3176 5.37502 13.3842 4.61669 14.6926C4.18335 15.4509 4.44169 16.4176 5.20002 16.8509L6.64169 17.6759C7.30002 18.0675 8.15002 17.8342 8.54169 17.1759L8.63335 17.0175C9.38335 15.7092 10.6167 15.7092 11.375 17.0175L11.4667 17.1759C11.8584 17.8342 12.7084 18.0675 13.3667 17.6759L14.8084 16.8509C15.5667 16.4176 15.825 15.4426 15.3917 14.6926C14.6334 13.3842 15.25 12.3176 16.7584 12.3176C17.625 12.3176 18.3417 11.6092 18.3417 10.7342V9.26755C18.3373 8.84754 18.168 8.44609 17.8702 8.14986C17.5724 7.85363 17.17 7.68638 16.75 7.68422ZM10 12.7092C8.50835 12.7092 7.29169 11.4926 7.29169 10.0009C7.29169 8.50922 8.50835 7.29255 10 7.29255C11.4917 7.29255 12.7084 8.50922 12.7084 10.0009C12.7084 11.4926 11.4917 12.7092 10 12.7092Z" fill="#CCCCCC"/>
</svg>
