<svg width="14" height="18" viewBox="0 0 14 18" fill="none" xmlns="http://www.w3.org/2000/svg">
<path d="M10.5333 0.666748H3.46668C1.16668 0.666748 0.333344 1.50008 0.333344 3.84175V14.1584C0.333344 16.5001 1.16668 17.3334 3.46668 17.3334H10.525C12.8333 17.3334 13.6667 16.5001 13.6667 14.1584V3.84175C13.6667 1.50008 12.8333 0.666748 10.5333 0.666748ZM7.00001 15.0834C6.20001 15.0834 5.54168 14.4251 5.54168 13.6251C5.54168 12.8251 6.20001 12.1667 7.00001 12.1667C7.80001 12.1667 8.45834 12.8251 8.45834 13.6251C8.45834 14.4251 7.80001 15.0834 7.00001 15.0834ZM8.66668 4.20841H5.33334C4.99168 4.20841 4.70834 3.92508 4.70834 3.58341C4.70834 3.24175 4.99168 2.95841 5.33334 2.95841H8.66668C9.00834 2.95841 9.29168 3.24175 9.29168 3.58341C9.29168 3.92508 9.00834 4.20841 8.66668 4.20841Z" fill="#BBBBBB"/>
</svg>
