<svg width="20" height="18" viewBox="0 0 20 18" fill="none" xmlns="http://www.w3.org/2000/svg">
<path d="M15 0.5H5C2 0.5 0 2 0 5.5V12.5C0 16 2 17.5 5 17.5H15C18 17.5 20 16 20 12.5V5.5C20 2 18 0.5 15 0.5ZM15.47 6.59L12.34 9.09C11.68 9.62 10.84 9.88 10 9.88C9.16 9.88 8.31 9.62 7.66 9.09L4.53 6.59C4.377 6.463 4.27907 6.28173 4.2567 6.08415C4.23433 5.88657 4.28927 5.68799 4.41 5.53C4.67 5.21 5.14 5.15 5.46 5.41L8.59 7.91C9.35 8.52 10.64 8.52 11.4 7.91L14.53 5.41C14.85 5.15 15.33 5.2 15.58 5.53C15.84 5.85 15.79 6.33 15.47 6.59Z" fill="#BBBBBB"/>
</svg>
