<svg width="24" height="24" viewBox="0 0 24 24" fill="none" xmlns="http://www.w3.org/2000/svg">
<path d="M14.53 10.048L9.47002 15.108C8.79902 14.437 8.42206 13.5269 8.42206 12.578C8.42206 12.1081 8.5146 11.6429 8.69441 11.2088C8.87422 10.7747 9.13777 10.3803 9.47002 10.048C9.80226 9.71576 10.1967 9.45221 10.6308 9.2724C11.0649 9.09259 11.5302 9.00005 12 9.00005C12.949 9.00005 13.859 9.37701 14.53 10.048V10.048Z" stroke="#AAAAAA" stroke-width="1.5" stroke-linecap="round" stroke-linejoin="round"/>
<path d="M17.82 6.04002C16.07 4.72002 14.07 4.00002 12 4.00002C8.47003 4.00002 5.18003 6.08002 2.89003 9.68002C1.99003 11.09 1.99003 13.46 2.89003 14.87C3.68003 16.11 4.60003 17.18 5.60003 18.04M8.42003 19.8C9.56003 20.28 10.77 20.54 12 20.54C15.53 20.54 18.82 18.46 21.11 14.86C22.01 13.45 22.01 11.08 21.11 9.67001C20.78 9.15001 20.42 8.66002 20.05 8.20002" stroke="#AAAAAA" stroke-width="1.5" stroke-linecap="round" stroke-linejoin="round"/>
<path d="M15.51 12.7C15.3745 13.3976 15.0337 14.0387 14.5312 14.5412C14.0287 15.0437 13.3876 15.3845 12.69 15.52M9.47 14.53L2 22M22 2L14.53 9.47" stroke="#AAAAAA" stroke-width="1.5" stroke-linecap="round" stroke-linejoin="round"/>
</svg>
