<svg width="14" height="14" viewBox="0 0 14 14" fill="none" xmlns="http://www.w3.org/2000/svg">
<path d="M1.66667 3.66667H12.3333M5.66667 6.33333V10.3333M8.33334 6.33333V10.3333M2.33334 3.66667L3.00001 11.6667C3.00001 12.0203 3.14048 12.3594 3.39053 12.6095C3.64058 12.8595 3.97972 13 4.33334 13H9.66667C10.0203 13 10.3594 12.8595 10.6095 12.6095C10.8595 12.3594 11 12.0203 11 11.6667L11.6667 3.66667M5.00001 3.66667V1.66667C5.00001 1.48986 5.07024 1.32029 5.19527 1.19526C5.32029 1.07024 5.48986 1 5.66667 1H8.33334C8.51015 1 8.67972 1.07024 8.80474 1.19526C8.92977 1.32029 9.00001 1.48986 9.00001 1.66667V3.66667" stroke="#CCCCCC" stroke-width="1.5" stroke-linecap="round" stroke-linejoin="round"/>
</svg>
