<svg width="28" height="28" viewBox="0 0 28 28" fill="none" xmlns="http://www.w3.org/2000/svg">
<circle cx="14" cy="14" r="14" fill="#E6E8EC"/>
<path d="M14.5299 19H12.0339L7.99086 11.98H7.93886C7.94753 12.1967 7.95619 12.4177 7.96486 12.643C7.97353 12.8597 7.98219 13.0807 7.99086 13.306C8.00819 13.5227 8.02119 13.7437 8.02986 13.969C8.03853 14.1857 8.04719 14.4067 8.05586 14.632V19H6.30086V9.718H8.78386L12.8139 16.673H12.8529C12.8442 16.4563 12.8355 16.244 12.8269 16.036C12.8182 15.8193 12.8095 15.607 12.8009 15.399C12.8009 15.1823 12.7965 14.97 12.7879 14.762C12.7792 14.5453 12.7705 14.3287 12.7619 14.112V9.718H14.5299V19ZM19.8401 9.718C21.0361 9.718 21.9071 9.978 22.4531 10.498C23.0077 11.0093 23.2851 11.7157 23.2851 12.617C23.2851 13.0243 23.2244 13.4143 23.1031 13.787C22.9817 14.151 22.7781 14.4803 22.4921 14.775C22.2147 15.061 21.8464 15.2863 21.3871 15.451C20.9277 15.6157 20.3601 15.698 19.6841 15.698H18.8391V19H16.8761V9.718H19.8401ZM19.7361 11.33H18.8391V14.086H19.4891C19.8617 14.086 20.1824 14.0383 20.4511 13.943C20.7197 13.8477 20.9277 13.696 21.0751 13.488C21.2224 13.28 21.2961 13.0113 21.2961 12.682C21.2961 12.2227 21.1704 11.8847 20.9191 11.668C20.6677 11.4427 20.2734 11.33 19.7361 11.33Z" fill="#616375"/>
</svg>
