<?xml version="1.0" encoding="utf-8"?>
<!-- Generator: Adobe Illustrator 27.6.1, SVG Export Plug-In . SVG Version: 6.00 Build 0)  -->
<svg version="1.1" id="Layer_1" xmlns="http://www.w3.org/2000/svg" xmlns:xlink="http://www.w3.org/1999/xlink" x="0px" y="0px"
	 viewBox="0 0 112 18" style="enable-background:new 0 0 112 18;" xml:space="preserve">
<style type="text/css">
	.st0{fill:#30387A;}
</style>
<g>
	<path class="st0" d="M33,17.8c-1.6,0-2.9-1.5-2.5-3.1l2.4-11.1c0.4-2,2.2-3.4,4.2-3.4h10.5c0.5,0,0.9,0.5,0.8,1l-0.3,1.6
		c-0.1,0.6-0.6,1-1.2,1h-7.9c-0.5,0-1,0.4-1.1,0.9l-2,9.2c-0.1,0.3,0.2,0.6,0.5,0.6h3.4c0.4,0,0.8-0.2,0.9-0.6l0.6-2.8
		c0-0.2-0.1-0.4-0.3-0.4h-1.1c-0.3,0-0.4-0.2-0.4-0.5l0.5-2.4c0.1-0.4,0.5-0.7,0.9-0.7h5.5c0.5,0,0.8,0.4,0.7,0.9l-1.4,7.1
		c-0.3,1.7-1.8,2.9-3.6,2.9L33,17.8z"/>
	<path class="st0" d="M2,17.4l-1.7-3.1C0,14,0,13.6,0.1,13.3L2.7,0.9c0.1-0.5,0.5-0.8,1-0.8l3.5,0c0.5,0,0.8,0.4,0.7,0.9L5.1,13.8
		c-0.1,0.3,0.2,0.5,0.4,0.5h6.8c0.4,0,0.6,0.3,0.6,0.7L12.5,17c-0.1,0.5-0.5,0.8-1,0.8H2.7C2.4,17.8,2.1,17.7,2,17.4z"/>
	<path class="st0" d="M89.2,17.4l-1.7-3.1c-0.2-0.3-0.2-0.7-0.2-1l2.6-12.4c0.1-0.5,0.5-0.8,1-0.8l3.5,0c0.5,0,0.8,0.4,0.7,0.9
		l-2.7,12.8c-0.1,0.3,0.2,0.5,0.4,0.5h5.9c0.4,0,0.6,0.3,0.6,0.7L98.8,17c-0.1,0.5-0.5,0.8-1,0.8h-7.9
		C89.6,17.8,89.3,17.7,89.2,17.4z"/>
	<path class="st0" d="M101.9,17.4l-1.7-3.1c-0.2-0.3-0.2-0.7-0.2-1l2.6-12.4c0.1-0.5,0.5-0.8,1-0.8l3.5,0c0.5,0,0.8,0.4,0.7,0.9
		l-2.7,12.8c-0.1,0.3,0.2,0.5,0.4,0.5h5.9c0.4,0,0.6,0.3,0.6,0.7l-0.4,1.9c-0.1,0.5-0.5,0.8-1,0.8h-7.9
		C102.4,17.8,102.1,17.7,101.9,17.4z"/>
	<path class="st0" d="M82.7,17.8c-0.5,0-0.8-0.4-0.9-0.8l-0.4-3.2H76l-1.7,3.4c-0.2,0.4-0.6,0.6-1,0.6h-3.4c-0.5,0-0.8-0.5-0.5-0.9
		L77,1.6c0.5-0.9,1.4-1.4,2.4-1.4h3.9c0.7,0,1.3,0.5,1.3,1.2l1.9,15.3c0,0.6-0.4,1.1-1,1.1H82.7z M77.6,10.2H81l-0.6-6L77.6,10.2z"
		/>
	<path class="st0" d="M70.5,3.7l-7.9,0C62.3,3.7,62,4,62,4.3l-0.5,2.2c-0.1,0.3,0.2,0.6,0.5,0.6h6.9c1,0,1.8,0.9,1.6,1.9l-1.1,5.2
		c-0.4,2.1-2.3,3.6-4.5,3.6h-9.3c-0.8,0-1.4-0.7-1.2-1.5l0.2-1c0.1-0.6,0.6-1,1.2-1h4.5h3.5c0.2,0,0.5-0.2,0.5-0.4l0.5-2.6
		c0.1-0.3-0.2-0.5-0.4-0.5h-6.5c-1.3,0-2.2-1.2-1.9-2.4l1-4.9C57.3,1.6,59,0.2,61,0.2h9.8c0.8,0,1.4,0.7,1.2,1.5l-0.2,1
		C71.6,3.3,71.1,3.7,70.5,3.7z"/>
	<path class="st0" d="M51.3,17.8h-3.5c-0.5,0-0.8-0.4-0.7-0.9l3.4-16.1c0.1-0.4,0.5-0.7,0.9-0.7h3.5c0.5,0,0.8,0.4,0.7,0.9
		l-3.4,16.1C52.1,17.5,51.7,17.8,51.3,17.8z"/>
	<path class="st0" d="M41.4,12"/>
	<path class="st0" d="M40.9,14.4"/>
	<path class="st0" d="M18.2,17.8H24c2.5,0,4.6-1.7,5.1-4.2l1.6-7.3c0.7-3.2-1.7-6.2-5-6.2h-4.8c-2.4,0-4.5,1.7-5,4.1L14,12.7
		C13.5,15.3,15.5,17.8,18.2,17.8z M22,14.4h-1.6c-0.8,0-1.3-0.7-1.2-1.4l1.7-8c0.2-0.7,0.8-1.2,1.5-1.2h2.1c0.8,0,1.3,0.7,1.2,1.4
		l-1.7,8c-0.2,0.7-0.8,1.2-1.5,1.2H22z"/>
</g>
</svg>
