<svg width="149" height="24" viewBox="0 0 149 24" fill="none" xmlns="http://www.w3.org/2000/svg">
<g clip-path="url(#clip0_297_8390)">
<path d="M55.7087 0.345967C58.0181 0.345967 63.1587 -0.832815 63.8388 1.79194C64.424 4.07092 62.6209 4.95107 60.881 5.31257C58.0497 5.87838 53.5576 4.16522 50.9952 5.48546C48.8441 6.58565 48.5277 12.3538 48.069 14.4756C47.4205 17.4619 46.7245 18.735 50.2043 18.7507C51.9442 18.7507 52.9407 18.8607 53.6525 17.2104C54.9653 14.2242 52.4346 15.0886 51.5963 13.3283C50.8054 11.6308 52.6244 9.49331 53.9372 9.05324C55.2817 8.61316 61.2606 8.48742 62.004 9.98054C62.7316 11.458 60.4856 18.6721 59.837 20.1024C58.6033 22.79 56.9267 23.2772 54.0637 23.5444C50.7421 23.8587 46.5664 24.2517 43.2764 23.4344C37.3291 21.9727 41.1411 12.511 42.1534 8.4717C42.7702 6.00412 43.2764 2.97072 45.5699 1.39901C48.3063 -0.471322 52.5927 0.330249 55.6929 0.330249L55.7087 0.345967Z" fill="#3D499E"/>
<path d="M27.6018 23.7017C24.3118 23.6546 20.6106 23.6703 18.8074 20.4168C17.1308 17.3677 18.8232 12.5897 19.5667 9.4463C21.0377 3.12803 23.3312 0.393252 30.1958 0.330384C36.1115 0.283233 41.3154 2.32646 40.4296 8.97479C39.6546 14.7587 38.3734 22.963 31.0816 23.4974C29.753 23.5917 28.4401 23.7646 27.586 23.7174L27.6018 23.7017ZM30.3698 5.32842C29.2468 5.28127 27.9656 5.35985 27.5702 7.0573C26.9849 9.55632 24.8654 14.2243 25.4823 16.7547C26.0043 18.908 29.1835 19.6781 30.9393 18.0278C32.521 16.5347 32.948 10.3107 33.1379 8.18893C33.3277 5.8628 32.9639 5.32842 30.3857 5.34414L30.3698 5.32842Z" fill="#3D499E"/>
<path d="M86.8364 0.345817C88.8136 0.345817 93.8593 -0.675794 95.0772 1.46173C96.6273 4.21222 93.1159 5.23383 91.2811 5.31242C88.9243 5.42244 84.6062 4.38511 82.6765 5.78393C79.6237 8.00004 82.629 9.19454 84.8276 9.22597C86.6466 9.25741 90.9963 8.4244 92.5623 9.93324C93.9067 11.222 92.8153 13.8311 92.4673 15.2771C90.8698 21.9568 88.4656 23.5442 81.4585 23.7329C79.5763 23.78 73.3917 24.5816 72.0947 23.1356C70.9717 21.8625 71.636 19.615 73.0596 18.892C75.6378 17.5875 79.7977 19.3792 82.5816 18.7505C85.0332 18.1847 86.4252 15.6543 83.7679 14.5541C81.3953 13.5639 78.0104 15.4028 75.5587 14.1769C72.854 12.8095 74.0402 9.68177 74.5622 7.29277C76.0965 0.172929 80.209 0.345817 86.8364 0.345817Z" fill="#3D499E"/>
<path d="M103.777 18.2787C102.338 18.2787 101.231 18.0272 100.06 19.096C98.8741 20.1805 99.1588 22.0351 97.6878 22.9938C96.0428 24.0626 91.8513 24.2355 91.8354 22.0665C91.8354 20.6363 93.8601 17.9015 94.4611 16.7227C95.6158 14.428 96.7862 12.149 97.9409 9.85435C99.6966 6.36515 100.946 1.00563 105.454 0.282639C106.767 0.0783166 110.215 -0.15744 111.354 0.81702C112.698 1.96437 112.445 5.21781 112.635 6.78952C112.936 9.22566 113.236 11.6618 113.537 14.0822C113.806 16.1883 114.85 19.4418 114.486 21.485C114.059 23.7954 110.025 24.9113 108.27 22.8838C107.384 21.8622 108.222 20.1962 107.589 19.1589C106.783 17.8386 105.407 18.263 103.793 18.263L103.777 18.2787ZM106.118 6.47517C105.312 8.04688 104.616 9.33568 103.999 10.6559C103.493 11.7404 102.639 12.2119 103.603 13.1549C103.999 13.5479 106.024 13.485 106.403 13.1078C107.447 12.149 106.545 7.84256 106.103 6.45946L106.118 6.47517Z" fill="#3D499E"/>
<path d="M9.2693 23.6857C5.40989 23.6857 2.4837 24.3458 0.727983 20.4008C-0.774656 17.0374 0.395821 13.8154 1.12341 10.4047C1.64538 7.93717 1.48721 1.55603 4.14451 0.377246C4.98282 0.0157527 7.56104 0.0943381 8.43098 0.330095C10.2974 0.848759 10.1551 1.10023 9.87035 3.0963C9.28512 7.15131 8.083 11.1906 7.18142 15.1985C6.59618 17.8075 6.2482 18.6091 9.1744 18.7348C11.6893 18.8448 16.4187 17.4617 16.7192 20.4637C17.1779 24.7702 12.0057 23.6857 9.2693 23.6857Z" fill="#3D499E"/>
<path d="M124.213 23.7014C120.417 23.7014 118.44 24.2201 116.415 20.7623C114.58 17.6346 115.956 14.1926 116.652 10.8763C117.143 8.56584 117.301 2.21614 119.246 0.707297C120.844 -0.518636 125.431 -0.0942749 125.826 1.74462C126.143 3.30062 124.94 6.05111 124.608 7.6071C124.165 9.66604 123.707 11.725 123.248 13.7839C123.027 14.8055 121.904 17.3988 122.6 18.3262C123.295 19.2535 126.301 18.7191 127.376 18.7191C129.828 18.7191 132.723 18.7977 131.109 22.114C129.939 24.5187 126.601 23.7171 124.229 23.7171L124.213 23.7014Z" fill="#3D499E"/>
<path d="M141.059 23.67C136.946 23.67 135.364 24.1886 133.356 20.4637C131.505 17.0373 133.087 13.5167 133.846 9.94894C134.352 7.54423 134.336 1.36741 136.978 0.330079C138.607 -0.314321 142.403 -0.109999 142.799 1.65032C143.083 2.90768 142.039 5.34383 141.77 6.6012C141.328 8.64442 140.9 10.6719 140.442 12.7151C140.205 13.7839 138.797 17.1945 139.35 18.169C139.967 19.2849 142.514 18.7505 143.558 18.7505C145.804 18.7505 150.154 18.5462 148.002 22.2397C146.69 24.4873 143.336 23.7171 141.059 23.7171V23.67Z" fill="#3D499E"/>
<path d="M70.1014 0.298516C71.7464 0.298516 72.9485 0.0313255 73.4863 1.55588C74.1348 3.36335 72.0944 8.17278 71.7148 9.88594C70.9397 13.3751 70.2754 16.8958 69.3896 20.3692C68.6462 23.2612 67.5232 24.0313 64.2648 23.6384C61.5285 23.3083 61.8132 22.2867 62.2561 19.9449C62.8887 16.6914 63.6322 13.438 64.3439 10.2003C64.8184 8.04704 64.945 3.14331 66.3053 1.46158C67.3808 0.125628 68.2192 0.298516 70.0856 0.298516H70.1014Z" fill="#3D499E"/>
</g>
<defs>
<clipPath id="clip0_297_8390">
<rect width="148.571" height="24" fill="white"/>
</clipPath>
</defs>
</svg>
