<svg width="22" height="22" viewBox="0 0 22 22" fill="none" xmlns="http://www.w3.org/2000/svg">
<g clip-path="url(#clip0_917_4025)">
<path d="M11.0002 20.1668C16.0629 20.1668 20.1668 16.0629 20.1668 11.0002C20.1668 5.93741 16.0629 1.8335 11.0002 1.8335C5.93741 1.8335 1.8335 5.93741 1.8335 11.0002C1.8335 16.0629 5.93741 20.1668 11.0002 20.1668Z" stroke="#616375" stroke-width="2" stroke-linecap="round" stroke-linejoin="round"/>
<path d="M7.33312 2.75H8.24978C6.46231 8.10477 6.46231 13.8952 8.24978 19.25H7.33312M13.7498 2.75C15.5373 8.10477 15.5373 13.8952 13.7498 19.25" stroke="#616375" stroke-width="2" stroke-linecap="round" stroke-linejoin="round"/>
<path d="M2.75 13.7498C8.10477 15.5373 13.8952 15.5373 19.25 13.7498M2.75 8.24978C8.10477 6.46231 13.8952 6.46231 19.25 8.24978" stroke="#394DC0" stroke-width="2" stroke-linecap="round" stroke-linejoin="round"/>
</g>
<defs>
<clipPath id="clip0_917_4025">
<rect width="22" height="22" fill="white"/>
</clipPath>
</defs>
</svg>
