<svg width="28" height="28" viewBox="0 0 28 28" fill="none" xmlns="http://www.w3.org/2000/svg">
<circle cx="14" cy="14" r="14" fill="#E6E8EC"/>
<path d="M13.6236 19H11.1276L7.08461 11.98H7.03261C7.04994 12.422 7.06728 12.864 7.08461 13.306C7.11061 13.748 7.13228 14.19 7.14961 14.632V19H5.39461V9.718H7.87761L11.9076 16.673H11.9466C11.9379 16.2397 11.9249 15.8107 11.9076 15.386C11.8903 14.9613 11.8729 14.5367 11.8556 14.112V9.718H13.6236V19ZM21.6508 19L20.9748 16.79H17.5948L16.9188 19H14.7998L18.0758 9.679H20.4808L23.7698 19H21.6508ZM19.8308 12.981C19.7875 12.8337 19.7311 12.6473 19.6618 12.422C19.5925 12.1967 19.5231 11.967 19.4538 11.733C19.3845 11.499 19.3281 11.2953 19.2848 11.122C19.2415 11.2953 19.1808 11.512 19.1028 11.772C19.0335 12.0233 18.9641 12.266 18.8948 12.5C18.8341 12.7253 18.7865 12.8857 18.7518 12.981L18.0888 15.139H20.5068L19.8308 12.981Z" fill="#616375"/>
</svg>
