<svg width="22" height="22" viewBox="0 0 22 22" fill="none" xmlns="http://www.w3.org/2000/svg">
<g clip-path="url(#clip0_917_4094)">
<path d="M20.1668 10.1752V6.32516C20.1668 3.11683 18.8835 1.8335 15.6752 1.8335H11.8252C8.61683 1.8335 7.3335 3.11683 7.3335 6.32516V7.3335H10.1752C13.3835 7.3335 14.6668 8.61683 14.6668 11.8252V14.6668H15.6752C18.8835 14.6668 20.1668 13.3835 20.1668 10.1752Z" stroke="#616375" stroke-width="2" stroke-linecap="round" stroke-linejoin="round"/>
<path d="M14.6668 15.6752V11.8252C14.6668 8.61683 13.3835 7.3335 10.1752 7.3335H6.32516C3.11683 7.3335 1.8335 8.61683 1.8335 11.8252V15.6752C1.8335 18.8835 3.11683 20.1668 6.32516 20.1668H10.1752C13.3835 20.1668 14.6668 18.8835 14.6668 15.6752Z" stroke="#616375" stroke-width="2" stroke-linecap="round" stroke-linejoin="round"/>
<path d="M5.57324 13.7499L7.36074 15.5374L10.9266 11.9624" stroke="#394DC0" stroke-width="2" stroke-linecap="round" stroke-linejoin="round"/>
</g>
<defs>
<clipPath id="clip0_917_4094">
<rect width="22" height="22" fill="white"/>
</clipPath>
</defs>
</svg>
