<svg width="22" height="22" viewBox="0 0 22 22" fill="none" xmlns="http://www.w3.org/2000/svg">
<path d="M12.8333 20.1667H8.25C3.66667 20.1667 2.75 18.3334 2.75 14.6667V9.16673C2.75 4.98673 4.28083 3.85006 7.33333 3.68506M14.6667 3.68506C17.7192 3.85006 19.25 4.97756 19.25 9.16673V13.7501M13.75 17.4167V14.6667H16.5M19.25 20.1667L13.7867 14.7034" stroke="#616375" stroke-width="2" stroke-miterlimit="10" stroke-linecap="round" stroke-linejoin="round"/>
<path d="M9.16683 5.50016H12.8335C14.6668 5.50016 14.6668 4.5835 14.6668 3.66683C14.6668 1.8335 13.7502 1.8335 12.8335 1.8335H9.16683C8.25016 1.8335 7.3335 1.8335 7.3335 3.66683C7.3335 5.50016 8.25016 5.50016 9.16683 5.50016Z" stroke="#394DC0" stroke-width="2" stroke-miterlimit="10" stroke-linecap="round" stroke-linejoin="round"/>
</svg>
