<svg width="22" height="22" viewBox="0 0 22 22" fill="none" xmlns="http://www.w3.org/2000/svg">
<g clip-path="url(#clip0_917_4062)">
<path d="M2.90576 6.81982L10.9999 11.504L19.0391 6.84732M10.9999 19.809V11.4948" stroke="#616375" stroke-width="2" stroke-linecap="round" stroke-linejoin="round"/>
<path d="M19.8093 8.406V13.5943C19.8093 13.6402 19.8093 13.6768 19.8001 13.7227C19.1584 13.1635 18.3334 12.8335 17.4168 12.8335C16.5551 12.8335 15.7576 13.136 15.1251 13.6402C14.6948 13.9821 14.3476 14.4171 14.1094 14.9124C13.8713 15.4077 13.7484 15.9506 13.7501 16.5002C13.7501 17.1877 13.9426 17.8385 14.2818 18.3885C14.3643 18.5352 14.4651 18.6727 14.5751 18.801L12.8976 19.7268C11.8526 20.3135 10.1476 20.3135 9.10258 19.7268L4.20758 17.0135C3.09842 16.3993 2.19092 14.8593 2.19092 13.5943V8.406C2.19092 7.141 3.09842 5.601 4.20758 4.98683L9.10258 2.2735C10.1476 1.68683 11.8526 1.68683 12.8976 2.2735L17.7926 4.98683C18.9018 5.601 19.8093 7.141 19.8093 8.406Z" stroke="#616375" stroke-width="2" stroke-linecap="round" stroke-linejoin="round"/>
<path d="M21.0833 16.4998C21.0833 17.5998 20.5975 18.5807 19.8367 19.2498C19.1682 19.8394 18.3079 20.1652 17.4167 20.1665C15.3908 20.1665 13.75 18.5257 13.75 16.4998C13.75 15.3448 14.2817 14.309 15.125 13.6398C15.664 13.2078 16.3141 12.9369 17.0004 12.8583C17.6866 12.7797 18.3811 12.8966 19.0039 13.1955C19.6266 13.4944 20.1522 13.9632 20.5201 14.5478C20.888 15.1324 21.0833 15.8091 21.0833 16.4998Z" stroke="#394DC0" stroke-width="2" stroke-miterlimit="10" stroke-linecap="round" stroke-linejoin="round"/>
<path d="M17.6458 15.354V16.729L16.5 17.4165" stroke="#394DC0" stroke-width="2" stroke-miterlimit="10" stroke-linecap="round" stroke-linejoin="round"/>
</g>
<defs>
<clipPath id="clip0_917_4062">
<rect width="22" height="22" fill="white"/>
</clipPath>
</defs>
</svg>
