<svg width="28" height="28" viewBox="0 0 28 28" fill="none" xmlns="http://www.w3.org/2000/svg">
<circle cx="14" cy="14" r="14" fill="#E6E8EC"/>
<path d="M13.0223 15.724C13.0223 16.3653 12.8793 16.946 12.5933 17.466C12.316 17.9773 11.8913 18.3847 11.3193 18.688C10.756 18.9827 10.041 19.13 9.17432 19.13C7.94365 19.13 7.00765 18.818 6.36632 18.194C5.72498 17.5613 5.40432 16.7293 5.40432 15.698V9.718H7.36732V15.399C7.36732 16.1617 7.52332 16.699 7.83532 17.011C8.14732 17.323 8.61098 17.479 9.22632 17.479C9.86765 17.479 10.3313 17.31 10.6173 16.972C10.912 16.634 11.0593 16.1053 11.0593 15.386V9.718H13.0223V15.724ZM23.5245 19H21.0285L16.9855 11.98H16.9335C16.9508 12.422 16.9682 12.864 16.9855 13.306C17.0115 13.748 17.0332 14.19 17.0505 14.632V19H15.2955V9.718H17.7785L21.8085 16.673H21.8475C21.8388 16.2397 21.8258 15.8107 21.8085 15.386C21.7912 14.9613 21.7738 14.5367 21.7565 14.112V9.718H23.5245V19Z" fill="#616375"/>
</svg>
