<svg width="22" height="22" viewBox="0 0 22 22" fill="none" xmlns="http://www.w3.org/2000/svg">
<path d="M3 8.5H19" stroke="#616375" stroke-width="2" stroke-linecap="round"/>
<path d="M7 1.5V4.5" stroke="#616375" stroke-width="2" stroke-linecap="round"/>
<path d="M15 1.5V4.5" stroke="#616375" stroke-width="2" stroke-linecap="round"/>
<path d="M19.25 9.99683V7.79183C19.25 5.04183 17.875 3.2085 14.6667 3.2085H7.33333C4.125 3.2085 2.75 5.04183 2.75 7.79183V15.5835C2.75 18.3335 4.125 20.1668 7.33333 20.1668H11.0892" stroke="#616375" stroke-width="2" stroke-miterlimit="10" stroke-linecap="round" stroke-linejoin="round"/>
<path d="M20.0833 16.4998C20.0833 17.5998 19.5975 18.5807 18.8367 19.2498C18.1682 19.8394 17.3079 20.1652 16.4167 20.1665C14.3908 20.1665 12.75 18.5257 12.75 16.4998C12.75 15.3448 13.2817 14.309 14.125 13.6398C14.664 13.2078 15.3141 12.9369 16.0004 12.8583C16.6866 12.7797 17.3811 12.8966 18.0039 13.1955C18.6266 13.4944 19.1522 13.9632 19.5201 14.5478C19.888 15.1324 20.0833 15.8091 20.0833 16.4998Z" stroke="#394DC0" stroke-width="2" stroke-miterlimit="10" stroke-linecap="round" stroke-linejoin="round"/>
<path d="M15.2998 16.5909L15.9979 17.289L17.4998 15.8999" stroke="#394DC0" stroke-width="2" stroke-linecap="round" stroke-linejoin="round"/>
</svg>
