<svg width="28" height="28" viewBox="0 0 28 28" fill="none" xmlns="http://www.w3.org/2000/svg">
<circle cx="14" cy="14" r="14" fill="#E6E8EC"/>
<path d="M14.1712 15.724C14.1712 16.3653 14.0282 16.946 13.7422 17.466C13.4649 17.9773 13.0402 18.3847 12.4682 18.688C11.9049 18.9827 11.1899 19.13 10.3232 19.13C9.09258 19.13 8.15658 18.818 7.51524 18.194C6.87391 17.5613 6.55324 16.7293 6.55324 15.698V9.718H8.51624V15.399C8.51624 16.1617 8.67224 16.699 8.98424 17.011C9.29624 17.323 9.75991 17.479 10.3752 17.479C11.0166 17.479 11.4802 17.31 11.7662 16.972C12.0609 16.634 12.2082 16.1053 12.2082 15.386V9.718H14.1712V15.724ZM20.3834 11.226C19.6294 11.226 19.0531 11.5077 18.6544 12.071C18.2557 12.6343 18.0564 13.4057 18.0564 14.385C18.0564 15.373 18.2384 16.14 18.6024 16.686C18.9751 17.2233 19.5687 17.492 20.3834 17.492C20.7647 17.492 21.1417 17.4487 21.5144 17.362C21.8957 17.2753 22.3074 17.154 22.7494 16.998V18.649C22.3421 18.8137 21.9391 18.935 21.5404 19.013C21.1417 19.091 20.6954 19.13 20.2014 19.13C19.2481 19.13 18.4594 18.935 17.8354 18.545C17.2201 18.1463 16.7651 17.5917 16.4704 16.881C16.1757 16.1617 16.0284 15.3253 16.0284 14.372C16.0284 13.436 16.1974 12.6083 16.5354 11.889C16.8734 11.1697 17.3631 10.6063 18.0044 10.199C18.6544 9.79167 19.4474 9.588 20.3834 9.588C20.8427 9.588 21.3021 9.64867 21.7614 9.77C22.2294 9.88267 22.6757 10.0387 23.1004 10.238L22.4634 11.837C22.1167 11.6723 21.7657 11.5293 21.4104 11.408C21.0637 11.2867 20.7214 11.226 20.3834 11.226Z" fill="#616375"/>
</svg>
