<svg width="22" height="22" viewBox="0 0 22 22" fill="none" xmlns="http://www.w3.org/2000/svg">
<g clip-path="url(#clip0_917_4083)">
<path d="M20.1668 11.0002V8.25016C20.1668 3.66683 18.3335 1.8335 13.7502 1.8335H8.25016C3.66683 1.8335 1.8335 3.66683 1.8335 8.25016V13.7502C1.8335 18.3335 3.66683 20.1668 8.25016 20.1668H11.0002" stroke="#616375" stroke-width="2" stroke-linecap="round" stroke-linejoin="round"/>
<path d="M19.2132 16.3531L17.719 16.8573C17.3065 16.9948 16.9765 17.3156 16.839 17.7373L16.3349 19.2315C15.904 20.524 14.089 20.4965 13.6857 19.204L11.9899 13.7498C11.6599 12.6681 12.659 11.6598 13.7315 11.999L19.1949 13.6948C20.4782 14.0981 20.4965 15.9223 19.2132 16.3531Z" stroke="#394DC0" stroke-width="2" stroke-linecap="round" stroke-linejoin="round"/>
</g>
<defs>
<clipPath id="clip0_917_4083">
<rect width="22" height="22" fill="white"/>
</clipPath>
</defs>
</svg>
