<svg width="10" height="8" viewBox="0 0 10 8" fill="none" xmlns="http://www.w3.org/2000/svg">
<path d="M5.34631 7.14476C5.12585 7.21835 4.87417 7.21835 4.65372 7.14476C4.48345 7.08792 4.37285 6.98781 4.29589 6.90623C4.22022 6.82603 4.1392 6.72095 4.0501 6.6054L0.526978 2.03686C0.437523 1.92088 0.356231 1.81549 0.301111 1.72604C0.245093 1.63514 0.184321 1.51294 0.203689 1.37347C0.228752 1.193 0.354699 1.029 0.550185 0.922292C0.701256 0.839828 0.872571 0.818088 1.00543 0.808937C1.13615 0.799932 1.29837 0.799942 1.47689 0.799952H8.52312C8.70163 0.799942 8.86387 0.799932 8.9946 0.808937C9.12745 0.818088 9.29877 0.839828 9.44984 0.922293C9.64533 1.029 9.77127 1.193 9.79634 1.37347C9.8157 1.51294 9.75493 1.63514 9.69891 1.72604C9.64379 1.81549 9.5625 1.92089 9.47304 2.03688L5.94992 6.6054C5.86082 6.72096 5.77981 6.82603 5.70414 6.90623C5.62717 6.98781 5.51657 7.08792 5.34631 7.14476Z" fill="white"/>
</svg>
